<svg width="19" height="18" viewBox="0 0 19 18" fill="none" xmlns="http://www.w3.org/2000/svg">
<g clip-path="url(#clip0_1749_1705)">
<g clip-path="url(#clip1_1749_1705)">
<g clip-path="url(#clip2_1749_1705)">
<path d="M13.131 7.11975L14.535 4.68795C14.5732 4.62115 14.5834 4.54199 14.5634 4.46769C14.5435 4.3934 14.495 4.33 14.4285 4.2913C14.362 4.2526 14.2829 4.24173 14.2085 4.26107C14.134 4.28041 14.0702 4.32838 14.031 4.39455H14.0301L12.6081 6.85695C11.474 6.34405 10.2429 6.08071 8.9982 6.08475C7.73338 6.08309 6.48308 6.35414 5.3325 6.87945L5.3865 6.85695L3.9663 4.39455C3.94704 4.36139 3.92143 4.33236 3.89094 4.30911C3.86046 4.28585 3.82569 4.26882 3.78863 4.25901C3.75156 4.24919 3.71293 4.24676 3.67493 4.25187C3.63692 4.25699 3.6003 4.26953 3.56715 4.2888C3.534 4.30806 3.50496 4.33367 3.48171 4.36415C3.45845 4.39464 3.44143 4.42941 3.43161 4.46647C3.42179 4.50353 3.41937 4.54217 3.42448 4.58017C3.42959 4.61817 3.44214 4.65479 3.4614 4.68795L3.4605 4.68615L4.8645 7.11795C2.4525 8.44995 0.7938 10.8853 0.5643 13.7239L0.5625 13.7536H17.4321C17.3243 12.3851 16.879 11.0647 16.136 9.91047C15.3929 8.75623 14.3753 7.8042 13.1742 7.13955L13.1319 7.11795L13.1301 7.11975H13.131ZM5.1147 11.3506C4.92852 11.3506 4.74996 11.2767 4.61831 11.145C4.48666 11.0134 4.4127 10.8348 4.4127 10.6486C4.4127 10.4625 4.48666 10.2839 4.61831 10.1523C4.74996 10.0206 4.92852 9.94665 5.1147 9.94665C5.30088 9.94665 5.47944 10.0206 5.61109 10.1523C5.74274 10.2839 5.8167 10.4625 5.8167 10.6486C5.8167 10.8348 5.74274 11.0134 5.61109 11.145C5.47944 11.2767 5.30088 11.3506 5.1147 11.3506ZM12.879 11.3506C12.6928 11.3506 12.5143 11.2767 12.3826 11.145C12.251 11.0134 12.177 10.8348 12.177 10.6486C12.177 10.4625 12.251 10.2839 12.3826 10.1523C12.5143 10.0206 12.6928 9.94665 12.879 9.94665C13.0652 9.94665 13.2437 10.0206 13.3754 10.1523C13.507 10.2839 13.581 10.4625 13.581 10.6486C13.581 10.8348 13.507 11.0134 13.3754 11.145C13.2437 11.2767 13.0652 11.3506 12.879 11.3506Z" fill="white"/>
</g>
</g>
</g>
<defs>
<clipPath id="clip0_1749_1705">
<rect width="18.72" height="18" fill="white"/>
</clipPath>
<clipPath id="clip1_1749_1705">
<rect width="18" height="18" fill="white"/>
</clipPath>
<clipPath id="clip2_1749_1705">
<rect width="18" height="18.9" fill="white" transform="translate(0 -0.449951)"/>
</clipPath>
</defs>
</svg>
