<svg width="30" height="30" viewBox="0 0 30 30" fill="none" xmlns="http://www.w3.org/2000/svg">
<g clip-path="url(#clip0_1749_1944)">
<g clip-path="url(#clip1_1749_1944)">
<path d="M27.4985 4.43603V8.74853C27.4985 9.08005 27.3668 9.39799 27.1323 9.63242C26.8979 9.86684 26.58 9.99853 26.2485 9.99853H21.8735C21.6923 10.0006 21.5128 9.96322 21.3475 9.88902C21.1822 9.81483 21.0349 9.70557 20.916 9.56884C20.7971 9.4321 20.7094 9.27114 20.6589 9.09713C20.6083 8.92311 20.5963 8.74018 20.6235 8.56103C20.6822 8.2578 20.8461 7.98502 21.0861 7.79068C21.3262 7.59634 21.6271 7.49289 21.936 7.49853H23.3735C21.9175 5.87714 20.022 4.71349 17.9173 4.14898C15.8125 3.58446 13.5891 3.64338 11.5172 4.31857C9.44528 4.99376 7.61406 6.25616 6.24603 7.95238C4.878 9.6486 4.03205 11.7056 3.81095 13.8735C3.77986 14.1829 3.63456 14.4696 3.40343 14.6777C3.17229 14.8857 2.87191 15.0001 2.56095 14.9985C2.38573 14.9994 2.21228 14.9634 2.05186 14.893C1.89144 14.8225 1.74763 14.719 1.62976 14.5894C1.51189 14.4597 1.4226 14.3067 1.36768 14.1404C1.31276 13.974 1.29343 13.7979 1.31095 13.6235C1.57348 10.9992 2.58521 8.5058 4.2255 6.44054C5.8658 4.37528 8.06546 2.82534 10.5622 1.97553C13.0589 1.12572 15.7474 1.01189 18.307 1.64762C20.8667 2.28335 23.1895 3.64181 24.9985 5.56103V4.37353C24.9964 4.19234 25.0338 4.01287 25.108 3.84755C25.1822 3.68223 25.2914 3.53502 25.4282 3.41612C25.5649 3.29722 25.7258 3.20947 25.8999 3.15894C26.0739 3.10842 26.2568 3.09634 26.436 3.12353C26.7392 3.18231 27.012 3.34615 27.2063 3.58622C27.4007 3.82629 27.5041 4.12721 27.4985 4.43603ZM2.49845 25.561V21.2485C2.49845 20.917 2.63015 20.5991 2.86457 20.3646C3.09899 20.1302 3.41693 19.9985 3.74846 19.9985H8.12345C8.30465 19.9965 8.48412 20.0338 8.64944 20.108C8.81475 20.1822 8.96196 20.2915 9.08087 20.4282C9.19977 20.565 9.28752 20.7259 9.33804 20.8999C9.38856 21.074 9.40065 21.2569 9.37346 21.436C9.31467 21.7393 9.15083 22.012 8.91076 22.2064C8.67069 22.4007 8.36978 22.5042 8.06095 22.4985H6.62346C8.0794 24.1199 9.9749 25.2836 12.0797 25.8481C14.1844 26.4126 16.4078 26.3537 18.4797 25.6785C20.5516 25.0033 22.3828 23.7409 23.7509 22.0447C25.1189 20.3485 25.9649 18.2914 26.186 16.1235C26.217 15.8141 26.3623 15.5274 26.5935 15.3194C26.8246 15.1114 27.125 14.997 27.436 14.9985C27.6112 14.9977 27.7846 15.0336 27.945 15.1041C28.1055 15.1746 28.2493 15.278 28.3671 15.4077C28.485 15.5373 28.5743 15.6903 28.6292 15.8567C28.6842 16.0231 28.7035 16.1992 28.686 16.3735C28.4234 18.9978 27.4117 21.4913 25.7714 23.5565C24.1311 25.6218 21.9315 27.1717 19.4347 28.0215C16.938 28.8713 14.2495 28.9852 11.6899 28.3494C9.13025 27.7137 6.80745 26.3553 4.99846 24.436V25.6235C5.00051 25.8047 4.96314 25.9842 4.88894 26.1495C4.81475 26.3148 4.7055 26.462 4.56876 26.5809C4.43202 26.6999 4.27107 26.7876 4.09705 26.8381C3.92303 26.8886 3.74011 26.9007 3.56095 26.8735C3.25773 26.8148 2.98494 26.6509 2.7906 26.4108C2.59626 26.1708 2.49281 25.8699 2.49845 25.561Z" fill="black"/>
<path d="M15.4358 13.75C13.2483 13.3125 13.2483 12.9375 13.2483 12.625C13.2483 12.3125 13.3733 12.25 13.5608 12.0625C13.9056 11.8771 14.2949 11.7906 14.6858 11.8125C15.412 11.8062 16.1258 12.0009 16.7483 12.375C16.8748 12.4783 17.0223 12.5527 17.1805 12.5932C17.3387 12.6337 17.5038 12.6393 17.6644 12.6096C17.825 12.5798 17.9771 12.5155 18.1104 12.421C18.2436 12.3266 18.3546 12.2042 18.4358 12.0625C18.5429 11.9347 18.6219 11.7858 18.6677 11.6254C18.7134 11.465 18.7248 11.2968 18.7013 11.1317C18.6777 10.9666 18.6196 10.8084 18.5308 10.6672C18.4419 10.5261 18.3244 10.4052 18.1858 10.3125C17.5915 9.94566 16.9347 9.69142 16.2483 9.5625V8.125C16.2483 7.79348 16.1166 7.47554 15.8821 7.24112C15.6477 7.0067 15.3298 6.875 14.9983 6.875C14.6667 6.875 14.3488 7.0067 14.1144 7.24112C13.88 7.47554 13.7483 7.79348 13.7483 8.125V9.5C11.8733 9.8125 10.6233 11.0625 10.6233 12.75C10.6233 14.4375 12.6858 15.8125 14.6858 16.1875C16.6858 16.5625 16.7483 17 16.7483 17.3125C16.7483 17.625 16.0608 18.1875 15.1858 18.1875C14.2655 18.2057 13.3649 17.9201 12.6233 17.375C12.4844 17.2827 12.3284 17.219 12.1646 17.1879C12.0007 17.1567 11.8323 17.1587 11.6692 17.1936C11.5061 17.2286 11.3517 17.2958 11.215 17.3914C11.0783 17.4869 10.9621 17.6089 10.8733 17.75C10.7747 17.8672 10.7011 18.0033 10.657 18.15C10.6129 18.2967 10.5992 18.4508 10.6168 18.6029C10.6343 18.755 10.6828 18.902 10.7591 19.0348C10.8355 19.1675 10.9381 19.2833 11.0608 19.375C11.865 19.9394 12.7818 20.3232 13.7483 20.5V21.875C13.7483 22.2065 13.88 22.5245 14.1144 22.7589C14.3488 22.9933 14.6667 23.125 14.9983 23.125C15.3298 23.125 15.6477 22.9933 15.8821 22.7589C16.1166 22.5245 16.2483 22.2065 16.2483 21.875V20.5C16.9339 20.3989 17.5807 20.1186 18.1233 19.6875C18.515 19.3999 18.8328 19.0231 19.0501 18.5884C19.2675 18.1537 19.3782 17.6735 19.3733 17.1875C19.3733 14.875 17.2483 14.125 15.4358 13.75Z" fill="black"/>
</g>
</g>
<defs>
<clipPath id="clip0_1749_1944">
<rect width="30" height="30" fill="white"/>
</clipPath>
<clipPath id="clip1_1749_1944">
<rect width="30" height="30" fill="white"/>
</clipPath>
</defs>
</svg>
