<svg width="30" height="30" viewBox="0 0 30 30" fill="none" xmlns="http://www.w3.org/2000/svg">
<g clip-path="url(#clip0_1749_1956)">
<g clip-path="url(#clip1_1749_1956)">
<path d="M8.74897 1.25C9.36704 1.25 9.97123 1.43328 10.4851 1.77666C10.999 2.12004 11.3996 2.6081 11.6361 3.17911C11.8726 3.75013 11.9345 4.37847 11.8139 4.98466C11.6933 5.59085 11.3957 6.14767 10.9587 6.58471C10.5216 7.02175 9.96482 7.31938 9.35863 7.43995C8.75244 7.56053 8.12411 7.49865 7.55309 7.26212C6.98207 7.0256 6.49401 6.62506 6.15063 6.11116C5.80725 5.59725 5.62397 4.99307 5.62397 4.375C5.62397 3.5462 5.95321 2.75134 6.53926 2.16529C7.12532 1.57924 7.92017 1.25 8.74897 1.25ZM13.684 9.605C13.5886 9.36432 13.4263 9.15594 13.2163 9.00445C13.0064 8.85296 12.7575 8.76467 12.499 8.75H4.99897C4.74106 8.76674 4.49309 8.85583 4.2835 9.00706C4.0739 9.15828 3.91117 9.36552 3.81397 9.605L1.31397 17.105C1.20921 17.4199 1.23385 17.7636 1.38248 18.0604C1.5311 18.3572 1.79153 18.5827 2.10647 18.6875C2.42142 18.7923 2.76508 18.7676 3.06185 18.619C3.35863 18.4704 3.58421 18.2099 3.68897 17.895L4.99897 13.9513V27.5C4.99897 27.8315 5.13067 28.1495 5.36509 28.3839C5.59951 28.6183 5.91745 28.75 6.24897 28.75C6.58049 28.75 6.89844 28.6183 7.13286 28.3839C7.36728 28.1495 7.49897 27.8315 7.49897 27.5V20H9.99897V27.5C9.99897 27.8315 10.1307 28.1495 10.3651 28.3839C10.5995 28.6183 10.9175 28.75 11.249 28.75C11.5805 28.75 11.8984 28.6183 12.1329 28.3839C12.3673 28.1495 12.499 27.8315 12.499 27.5V13.9513L13.814 17.895C13.8658 18.0509 13.9479 18.1951 14.0555 18.3194C14.1631 18.4436 14.2941 18.5454 14.4411 18.619C14.588 18.6926 14.748 18.7365 14.912 18.7483C15.0759 18.76 15.2405 18.7394 15.3965 18.6875C15.5524 18.6356 15.6966 18.5535 15.8208 18.4459C15.9451 18.3383 16.0469 18.2073 16.1205 18.0604C16.1941 17.9134 16.238 17.7534 16.2497 17.5895C16.2615 17.4256 16.2408 17.2609 16.189 17.105L13.684 9.605ZM28.3815 14.115L24.6315 10.365C24.3957 10.1373 24.08 10.0113 23.7522 10.0142C23.4245 10.017 23.111 10.1485 22.8792 10.3802C22.6474 10.612 22.516 10.9255 22.5131 11.2532C22.5103 11.581 22.6363 11.8967 22.864 12.1325L24.4815 13.75H18.749C18.4175 13.75 18.0995 13.8817 17.8651 14.1161C17.6307 14.3505 17.499 14.6685 17.499 15C17.499 15.3315 17.6307 15.6495 17.8651 15.8839C18.0995 16.1183 18.4175 16.25 18.749 16.25H24.4815L22.8652 17.8663C22.6375 18.102 22.5115 18.4178 22.5144 18.7455C22.5172 19.0732 22.6487 19.3868 22.8805 19.6185C23.1122 19.8503 23.4257 19.9817 23.7535 19.9846C24.0812 19.9874 24.397 19.8614 24.6327 19.6337L28.3827 15.8837C28.4989 15.7676 28.591 15.6297 28.6538 15.4779C28.7166 15.3261 28.7488 15.1634 28.7487 14.9991C28.7486 14.8348 28.7161 14.6722 28.6531 14.5205C28.5901 14.3688 28.4978 14.231 28.3815 14.115Z" fill="black"/>
</g>
</g>
<defs>
<clipPath id="clip0_1749_1956">
<rect width="30" height="30" fill="white"/>
</clipPath>
<clipPath id="clip1_1749_1956">
<rect width="30" height="30" fill="white"/>
</clipPath>
</defs>
</svg>
