<svg width="30" height="30" viewBox="0 0 30 30" fill="none" xmlns="http://www.w3.org/2000/svg">
<g clip-path="url(#clip0_1749_1932)">
<g clip-path="url(#clip1_1749_1932)">
<path d="M18.75 10.625C18.75 11.7853 18.2891 12.8981 17.4686 13.7186C16.6481 14.5391 15.5353 15 14.375 15C13.2147 15 12.1019 14.5391 11.2814 13.7186C10.4609 12.8981 10 11.7853 10 10.625C10 9.46468 10.4609 8.35188 11.2814 7.53141C12.1019 6.71094 13.2147 6.25 14.375 6.25C15.5353 6.25 16.6481 6.71094 17.4686 7.53141C18.2891 8.35188 18.75 9.46468 18.75 10.625Z" fill="black"/>
<path d="M22.0358 25H7.43208C6.92958 25 6.64583 24.4488 6.95958 24.0563C8.35333 22.31 11.6108 18.75 14.9983 18.75C18.4071 18.75 21.3271 22.3575 22.5321 24.0913C22.8071 24.4875 22.5196 25 22.0371 25H22.0358Z" fill="black" stroke="black" stroke-width="2.5" stroke-linecap="round" stroke-linejoin="round"/>
</g>
</g>
<defs>
<clipPath id="clip0_1749_1932">
<rect width="30" height="30" fill="white"/>
</clipPath>
<clipPath id="clip1_1749_1932">
<rect width="30" height="30" fill="white"/>
</clipPath>
</defs>
</svg>
