<svg width="19" height="18" viewBox="0 0 19 18" fill="none" xmlns="http://www.w3.org/2000/svg">
<g clip-path="url(#clip0_1749_1382)">
<g clip-path="url(#clip1_1749_1382)">
<g clip-path="url(#clip2_1749_1382)">
<mask id="mask0_1749_1382" style="mask-type:luminance" maskUnits="userSpaceOnUse" x="0" y="-1" width="18" height="19">
<path d="M0 -0.000732422H18V17.9993H0V-0.000732422Z" fill="white"/>
</mask>
<g mask="url(#mask0_1749_1382)">
<path fill-rule="evenodd" clip-rule="evenodd" d="M11.7648 2.87297C12.4218 2.11247 12.8646 1.05227 12.744 -0.000732422C11.799 0.0352676 10.6542 0.603168 9.97646 1.36277C9.36716 2.03777 8.83616 3.11417 8.97926 4.14737C10.0341 4.22567 11.1105 3.63437 11.7666 2.87297H11.7648ZM14.1309 9.56177C14.1579 12.2861 16.6239 13.1924 16.6518 13.2041C16.632 13.2671 16.2576 14.4956 15.3522 15.7646C14.5692 16.8608 13.7556 17.9516 12.4758 17.9759C11.2176 17.9984 10.8126 17.2613 9.37436 17.2613C7.93616 17.2613 7.48616 17.9525 6.29636 17.9984C5.05976 18.0425 4.11836 16.8122 3.32906 15.7196C1.71446 13.4849 0.481456 9.40427 2.13746 6.65027C2.96096 5.28317 4.43066 4.41647 6.02636 4.39487C7.23956 4.37237 8.38526 5.17697 9.12686 5.17697C9.86936 5.17697 11.2617 4.20947 12.7251 4.35167C13.3371 4.37597 15.057 4.58837 16.1613 6.13727C16.0713 6.19037 14.1093 7.28477 14.1309 9.56177Z" fill="white"/>
</g>
</g>
</g>
</g>
<defs>
<clipPath id="clip0_1749_1382">
<rect width="18.72" height="18" fill="white"/>
</clipPath>
<clipPath id="clip1_1749_1382">
<rect width="18" height="18" fill="white"/>
</clipPath>
<clipPath id="clip2_1749_1382">
<rect width="18" height="18.9" fill="white" transform="translate(0 -0.449951)"/>
</clipPath>
</defs>
</svg>
