<svg width="19" height="18" viewBox="0 0 19 18" fill="none" xmlns="http://www.w3.org/2000/svg">
<g clip-path="url(#clip0_1749_1393)">
<g clip-path="url(#clip1_1749_1393)">
<g clip-path="url(#clip2_1749_1393)">
<mask id="mask0_1749_1393" style="mask-type:luminance" maskUnits="userSpaceOnUse" x="0" y="-1" width="18" height="19">
<path d="M0 -0.000732422H18V17.9993H0V-0.000732422Z" fill="white"/>
</mask>
<g mask="url(#mask0_1749_1393)">
<path fill-rule="evenodd" clip-rule="evenodd" d="M17.4708 9.52851C17.7633 9.52851 18 9.76521 18 10.0577V17.4692C18.0002 17.5388 17.9867 17.6077 17.9602 17.672C17.9337 17.7363 17.8947 17.7948 17.8455 17.8439C17.7963 17.8931 17.7379 17.9321 17.6736 17.9586C17.6093 17.9851 17.5404 17.9986 17.4708 17.9984C17.447 17.9988 17.4233 17.9976 17.3997 17.9948L8.9298 16.8383C8.80287 16.8209 8.68649 16.7583 8.60214 16.6618C8.51778 16.5654 8.47114 16.4417 8.4708 16.3136V10.0577C8.4708 9.76521 8.7084 9.52851 9 9.52851H17.4708ZM6.8832 9.52851C7.1748 9.52851 7.4124 9.76521 7.4124 10.0577V16.0067C7.41233 16.0822 7.39609 16.1569 7.36478 16.2256C7.33346 16.2944 7.28779 16.3556 7.23083 16.4052C7.17388 16.4549 7.10697 16.4917 7.03458 16.5133C6.9622 16.5349 6.88603 16.5408 6.8112 16.5305L0.4572 15.6485C0.330819 15.6313 0.214915 15.569 0.130881 15.4731C0.0468484 15.3772 0.000360681 15.2541 0 15.1265L0 10.0586C0 9.76611 0.2376 9.52941 0.5301 9.52941L6.8832 9.52851ZM6.8112 1.46721C6.88609 1.45663 6.96237 1.46227 7.03488 1.48377C7.10739 1.50526 7.17443 1.54209 7.23145 1.59178C7.28848 1.64146 7.33415 1.70282 7.36537 1.7717C7.39659 1.84059 7.41263 1.91538 7.4124 1.99101V7.94001C7.41252 8.00961 7.39888 8.07856 7.37227 8.14287C7.34566 8.20719 7.30661 8.26562 7.25735 8.31479C7.20809 8.36397 7.1496 8.40293 7.08523 8.42943C7.02087 8.45593 6.9519 8.46945 6.8823 8.46921H0.5292C0.388847 8.46921 0.254243 8.41346 0.154999 8.31421C0.0557548 8.21497 0 8.08036 0 7.94001L0 2.87301C0 2.60841 0.1944 2.38431 0.4572 2.34831L6.8112 1.46721ZM17.3997 0.00381004C17.4744 -0.00602616 17.5504 0.000154239 17.6225 0.0219404C17.6947 0.0437266 17.7613 0.0806195 17.8181 0.130167C17.8749 0.179714 17.9205 0.24078 17.9518 0.309307C17.9832 0.377833 17.9996 0.45225 18 0.52761V7.93911C18.0001 8.00876 17.9865 8.07774 17.9599 8.14211C17.9333 8.20648 17.8943 8.26496 17.845 8.31421C17.7958 8.36346 17.7373 8.4025 17.6729 8.4291C17.6085 8.4557 17.5395 8.46933 17.4699 8.46921H9C8.93035 8.46933 8.86137 8.4557 8.797 8.4291C8.73263 8.4025 8.67415 8.36346 8.6249 8.31421C8.57565 8.26496 8.53661 8.20648 8.51001 8.14211C8.48341 8.07774 8.46978 8.00876 8.4699 7.93911V1.68411C8.4699 1.41951 8.6652 1.19541 8.9289 1.15941L17.3997 0.00381004Z" fill="white"/>
</g>
</g>
</g>
</g>
<defs>
<clipPath id="clip0_1749_1393">
<rect width="18.72" height="18" fill="white"/>
</clipPath>
<clipPath id="clip1_1749_1393">
<rect width="18" height="18" fill="white"/>
</clipPath>
<clipPath id="clip2_1749_1393">
<rect width="18" height="18.9" fill="white" transform="translate(0 -0.449951)"/>
</clipPath>
</defs>
</svg>
