<svg width="135" height="26" viewBox="0 0 135 26" fill="none" xmlns="http://www.w3.org/2000/svg">
<g opacity="0.7" clip-path="url(#clip0_1749_1228)">
<g clip-path="url(#clip1_1749_1228)">
<g clip-path="url(#clip2_1749_1228)">
<path d="M75.8536 18.4663H78.7703V7.4644H75.8536V18.4663ZM75.8536 5.74865H78.7703V3.13281H75.8536V5.74865ZM80.6499 22.0692H83.5666V17.2222H83.6092C84.2309 18.1661 85.2392 18.7878 86.7829 18.7878C89.614 18.7878 91.5443 16.536 91.5443 12.9763C91.5443 9.54481 89.6784 7.16416 86.7617 7.16416C85.2605 7.16416 84.2309 7.87223 83.5235 8.83737H83.459V7.4644H80.6499V22.0692ZM86.1612 16.3646C84.4242 16.3646 83.5022 15.0561 83.5022 13.062C83.5022 11.0892 84.2309 9.52355 86.0542 9.52355C87.8557 9.52355 88.5844 10.9816 88.5844 13.062C88.5844 15.1418 87.6411 16.3646 86.1612 16.3646ZM97.362 18.7878C100.107 18.7878 101.994 17.458 101.994 15.2494C101.994 12.6761 99.9572 12.1613 98.1126 11.7753C96.547 11.4532 95.089 11.3675 95.089 10.4243C95.089 9.63051 95.8395 9.20141 96.9761 9.20141C98.2202 9.20141 98.9708 9.63051 99.099 10.8102H101.737C101.523 8.60093 99.9141 7.16416 97.0192 7.16416C94.5097 7.16416 92.5369 8.30069 92.5369 10.6813C92.5369 13.0833 94.4672 13.6193 96.44 14.0053C97.9412 14.3055 99.3349 14.4131 99.3349 15.4639C99.3349 16.2358 98.6061 16.7293 97.3195 16.7293C96.0109 16.7293 95.1102 16.1714 94.9176 14.906H92.2154C92.3868 17.2441 94.167 18.7878 97.362 18.7878ZM113.068 18.4663V7.4644H110.151V13.8126C110.151 15.2706 109.315 16.3002 107.942 16.3002C106.698 16.3002 106.12 15.5928 106.12 14.3055V7.4644H103.224V14.799C103.224 17.2009 104.597 18.7666 107.042 18.7666C108.586 18.7666 109.444 18.1873 110.194 17.1797H110.259V18.4663H113.068ZM114.954 18.4663H117.871V12.0756C117.871 10.6169 118.665 9.67367 119.844 9.67367C120.916 9.67367 121.538 10.3167 121.538 11.5608V18.4663H124.455V12.0756C124.455 10.6169 125.206 9.67367 126.428 9.67367C127.5 9.67367 128.122 10.3167 128.122 11.5608V18.4663H131.039V11.0673C131.039 8.66536 129.73 7.16416 127.414 7.16416C126.021 7.16416 124.862 7.89349 124.112 9.09445H124.069C123.533 7.93665 122.418 7.16416 121.023 7.16416C119.501 7.16416 118.429 7.93665 117.828 8.94433H117.764V7.4644H114.954V18.4663ZM-0.164062 18.4663H2.75264V3.13281H-0.164062V18.4663ZM9.88397 18.7878C13.2942 18.7878 15.6317 16.2571 15.6317 12.9763C15.6317 9.69493 13.2942 7.16416 9.88397 7.16416C6.47437 7.16416 4.13688 9.69493 4.13688 12.9763C4.13688 16.2571 6.47437 18.7878 9.88397 18.7878ZM9.88397 16.5573C8.08253 16.5573 7.09612 15.1205 7.09612 12.9763C7.09612 10.8315 8.08253 9.37343 9.88397 9.37343C11.6641 9.37343 12.6718 10.8315 12.6718 12.9763C12.6718 15.1205 11.6648 16.5573 9.88397 16.5573ZM21.8341 22.2193C23.4642 22.2193 24.8797 21.8334 25.8017 20.9752C26.6167 20.2246 27.1096 19.1738 27.1096 17.63V7.4644H24.3005V8.62283H24.2573C23.5924 7.70021 22.5847 7.16416 21.2124 7.16416C18.4245 7.16416 16.4511 9.26584 16.4511 12.5472C16.4511 15.8711 18.853 17.8014 21.2981 17.8014C22.6917 17.8014 23.5286 17.2441 24.1716 16.5148H24.2361V17.7157C24.2361 19.2169 23.4423 20.0101 21.791 20.0101C20.4399 20.0101 19.8182 19.474 19.5823 18.7878H16.6869C16.9871 20.9327 18.8317 22.2193 21.8341 22.2193ZM21.791 15.4639C20.2898 15.4639 19.3034 14.3699 19.3034 12.5041C19.3034 10.6601 20.2898 9.50165 21.7697 9.50165C23.5286 9.50165 24.3862 10.8746 24.3862 12.4828C24.3862 14.1128 23.6356 15.4639 21.791 15.4639ZM34.199 18.7878C37.6086 18.7878 39.9468 16.2571 39.9468 12.9763C39.9468 9.69493 37.6086 7.16416 34.199 7.16416C30.7894 7.16416 28.4513 9.69493 28.4513 12.9763C28.4513 16.2571 30.7888 18.7878 34.199 18.7878ZM34.199 16.5573C32.3976 16.5573 31.4112 15.1205 31.4112 12.9763C31.4112 10.8315 32.3976 9.37343 34.199 9.37343C35.9792 9.37343 36.9869 10.8315 36.9869 12.9763C36.9869 15.1205 35.9792 16.5573 34.199 16.5573ZM132.099 5.65858C132.099 5.16444 132.499 4.76474 132.992 4.76474H134.779C134.899 4.76158 135.018 4.78236 135.129 4.82585C135.24 4.86933 135.341 4.93464 135.427 5.01792C135.512 5.10121 135.58 5.20078 135.627 5.31076C135.673 5.42074 135.697 5.5389 135.697 5.65827C135.697 5.77764 135.673 5.8958 135.627 6.00578C135.58 6.11576 135.512 6.21533 135.427 6.29861C135.341 6.3819 135.24 6.44721 135.129 6.49069C135.018 6.53418 134.899 6.55495 134.779 6.5518H132.992C132.755 6.55163 132.528 6.45749 132.361 6.29003C132.193 6.12258 132.099 5.89548 132.099 5.65858Z" fill="black"/>
<path fill-rule="evenodd" clip-rule="evenodd" d="M57.635 0C64.5436 0 70.145 5.60073 70.145 12.51C70.145 19.4193 64.5436 25.02 57.635 25.02C50.7257 25.02 45.125 19.4193 45.125 12.51C45.125 5.60073 50.7257 0 57.635 0ZM57.1828 0.936374C55.7554 1.13653 54.3968 2.2837 53.3416 4.20148C53.0351 4.75818 52.7599 5.37242 52.519 6.03608C53.9533 5.67579 55.5289 5.46312 57.1828 5.43059V0.936374ZM51.4613 6.33694C51.7403 5.44688 52.1048 4.58592 52.5497 3.76614C53.072 2.81538 53.6925 1.99409 54.3918 1.36359C52.5165 1.91118 50.8094 2.92232 49.4281 4.3037C48.0467 5.68507 47.0356 7.39216 46.488 9.26741C47.1191 8.5681 47.9398 7.9476 48.8905 7.42469C49.7103 6.97973 50.5712 6.61587 51.4613 6.33694ZM51.1611 7.39404C50.8008 8.82831 50.5881 10.4039 50.555 12.0578H46.0607C46.2615 10.6304 47.4087 9.27179 49.3265 8.21719C49.8832 7.9107 50.4974 7.63485 51.1611 7.39404ZM51.4601 12.0578C51.4976 10.2532 51.7572 8.55872 52.1869 7.0619C53.6837 6.63218 55.3782 6.37259 57.1828 6.33506V8.2885C56.8481 9.14268 56.3405 9.91844 55.6917 10.5671C55.043 11.2157 54.2671 11.7232 53.4129 12.0578H51.4601ZM50.555 12.9622H46.0607C46.2615 14.3896 47.4087 15.7482 49.3265 16.8028C49.8832 17.1093 50.4974 17.3851 51.1611 17.626C50.8008 16.1917 50.5881 14.6161 50.555 12.9622ZM52.1869 17.9581C51.7572 16.4613 51.497 14.7668 51.4601 12.9622H53.4129C54.2671 13.2968 55.043 13.8043 55.6917 14.4529C56.3405 15.1016 56.8481 15.8773 57.1828 16.7315V18.6849C55.3782 18.6474 53.6837 18.3878 52.1869 17.9581ZM51.4613 18.6837C50.5712 18.4048 49.7103 18.0403 48.8905 17.5953C47.9398 17.0724 47.1191 16.4519 46.4886 15.7526C47.0361 17.6277 48.047 19.3347 49.4282 20.7161C50.8093 22.0974 52.5161 23.1086 54.3912 23.6564C53.6918 23.0259 53.0714 22.2052 52.5484 21.2545C52.1037 20.4347 51.7401 19.5737 51.4613 18.6837ZM57.1828 24.0836C55.7554 23.8835 54.3968 22.7363 53.3416 20.8185C53.0351 20.2618 52.7599 19.647 52.519 18.9839C53.9533 19.3442 55.5289 19.5569 57.1828 19.5894V24.0836ZM60.8776 23.6564C61.5769 23.0259 62.1974 22.2052 62.7203 21.2545C63.1651 20.4347 63.5294 19.5737 63.8081 18.6837C64.6981 18.4047 65.5591 18.0402 66.3789 17.5953C67.3296 17.0724 68.1509 16.4519 68.7814 15.7526C68.2338 17.6278 67.2226 19.3349 65.8412 20.7162C64.4599 22.0976 62.7528 23.1088 60.8776 23.6564ZM62.751 18.9839C62.5241 19.6157 62.2489 20.229 61.9278 20.8185C60.8732 22.7363 59.514 23.8835 58.0872 24.0836V19.5894C59.7404 19.5569 61.3161 19.3442 62.751 18.9839ZM64.1083 17.626C64.7401 17.3995 65.3535 17.1245 65.9429 16.8034C67.8613 15.7482 69.0078 14.389 69.2086 12.9622H64.7144C64.6813 14.6161 64.4686 16.1917 64.1083 17.626ZM63.8099 12.9622C63.7724 14.7668 63.5128 16.4613 63.0825 17.9581C61.5857 18.3878 59.8918 18.6474 58.0872 18.6849V16.7334C58.4216 15.8788 58.9292 15.1025 59.5779 14.4534C60.2267 13.8044 61.0027 13.2964 61.8571 12.9616L63.8099 12.9622ZM64.7144 12.0578H69.2086C69.0078 10.6304 67.8613 9.27179 65.9429 8.21719C65.3536 7.89576 64.7402 7.62055 64.1083 7.39404C64.4686 8.82831 64.6813 10.4039 64.7144 12.0578ZM63.0825 7.0619C63.5128 8.55872 63.7724 10.2532 63.8099 12.0578H61.8577C61.0032 11.7231 60.2272 11.2153 59.5783 10.5663C58.9294 9.91734 58.4218 9.14119 58.0872 8.28662V6.33506C59.8918 6.37259 61.5857 6.63218 63.0825 7.0619ZM63.8081 6.33632C64.6981 6.61528 65.5591 6.97977 66.3789 7.42469C67.3296 7.9476 68.1509 8.5681 68.7814 9.26741C68.2338 7.39219 67.2226 5.68512 65.8412 4.30376C64.4599 2.92239 62.7528 1.91123 60.8776 1.36359C61.5769 1.99409 62.1974 2.81475 62.7203 3.76551C63.1651 4.58531 63.5293 5.44627 63.8081 6.33632ZM58.0872 0.936374C59.514 1.13653 60.8732 2.2837 61.9278 4.20148C62.2337 4.75818 62.5101 5.37242 62.751 6.03608C61.3161 5.67579 59.7404 5.46312 58.0872 5.43059V0.936374Z" fill="black"/>
</g>
</g>
</g>
<defs>
<clipPath id="clip0_1749_1228">
<rect width="135" height="25.02" fill="white"/>
</clipPath>
<clipPath id="clip1_1749_1228">
<rect width="135" height="25.02" fill="white"/>
</clipPath>
<clipPath id="clip2_1749_1228">
<rect width="136.359" height="25.02" fill="white" transform="translate(-0.679688)"/>
</clipPath>
</defs>
</svg>
