<svg width="135" height="33" viewBox="0 0 135 33" fill="none" xmlns="http://www.w3.org/2000/svg">
<g opacity="0.7" clip-path="url(#clip0_1749_1238)">
<g clip-path="url(#clip1_1749_1238)">
<g clip-path="url(#clip2_1749_1238)">
<path d="M39.5938 23.0744H49.198V20.1816H43.0073V9.28516H39.5938V23.0744ZM54.8873 21.1459C53.5188 21.1459 52.8053 19.9502 52.8053 18.1566C52.8053 16.363 53.5188 15.148 54.8881 15.148C56.2574 15.148 56.9903 16.363 56.9903 18.1566C56.9903 19.9502 56.2566 21.1459 54.8873 21.1459ZM54.9074 23.383C58.0896 23.383 60.1724 21.1266 60.1724 18.1566C60.1724 15.1866 58.0896 12.9302 54.9074 12.9302C51.7446 12.9302 49.6231 15.1866 49.6231 18.1566C49.6231 21.1266 51.7446 23.383 54.9074 23.383ZM65.6801 26.488C67.1458 26.488 68.4379 26.1602 69.3058 25.3887C70.0965 24.6752 70.6172 23.5952 70.6172 22.1102V13.2002H67.6087V14.2609H67.5701C66.9915 13.4316 66.1044 12.9109 64.7929 12.9109C62.3437 12.9109 60.6465 14.9552 60.6465 17.848C60.6465 20.8759 62.7101 22.5344 64.9279 22.5344C66.1237 22.5344 66.8758 22.0523 67.4544 21.3966H67.5315V22.3802C67.5315 23.5759 66.9722 24.2702 65.6415 24.2702C64.6001 24.2702 64.0794 23.8266 63.9058 23.3059H60.8587C61.1672 25.3694 62.9608 26.488 65.6801 26.488ZM65.6608 20.2009C64.4844 20.2009 63.7129 19.2366 63.7129 17.7516C63.7129 16.2473 64.4844 15.283 65.6608 15.283C66.9722 15.283 67.6665 16.4016 67.6665 17.7323C67.6665 19.1209 67.0301 20.2009 65.6608 20.2009ZM76.8039 21.1459C75.4338 21.1459 74.7203 19.9502 74.7203 18.1566C74.7203 16.363 75.4338 15.148 76.8039 15.148C78.1724 15.148 78.9053 16.363 78.9053 18.1566C78.9053 19.9502 78.1724 21.1459 76.8039 21.1459ZM76.8224 23.383C80.0046 23.383 82.0874 21.1266 82.0874 18.1566C82.0874 15.1866 80.0046 12.9302 76.8224 12.9302C73.6596 12.9302 71.5381 15.1866 71.5381 18.1566C71.5381 21.1266 73.6596 23.383 76.8224 23.383ZM83.0059 23.0744H86.1495V13.2002H83.0059V23.0744ZM83.0059 11.8309H86.1495V9.28516H83.0059V11.8309ZM87.5131 26.3337H90.6567V22.0523H90.6953C91.3124 22.8816 92.2188 23.383 93.4917 23.383C96.076 23.383 97.7924 21.3387 97.7924 18.1373C97.7924 15.1673 96.1917 12.9109 93.5688 12.9109C92.2188 12.9109 91.2546 13.5087 90.5796 14.3959H90.5217V13.2002H87.5131V26.3337ZM92.6817 20.953C91.3317 20.953 90.5603 19.8537 90.5603 18.253C90.5603 16.6523 91.2546 15.4373 92.6238 15.4373C93.9738 15.4373 94.6103 16.5559 94.6103 18.253C94.6103 19.9309 93.8774 20.953 92.6817 20.953ZM102.91 23.383C105.495 23.383 107.404 22.2644 107.404 20.1044C107.404 17.578 105.36 17.1344 103.624 16.8452C102.37 16.6137 101.252 16.5173 101.252 15.823C101.252 15.2059 101.85 14.9166 102.621 14.9166C103.489 14.9166 104.087 15.1866 104.202 16.0737H107.095C106.941 14.1259 105.437 12.9109 102.64 12.9109C100.307 12.9109 98.3782 13.9909 98.3782 16.0737C98.3782 18.388 100.21 18.8509 101.927 19.1402C103.238 19.3716 104.434 19.468 104.434 20.3552C104.434 20.9916 103.836 21.3387 102.891 21.3387C101.85 21.3387 101.194 20.8566 101.078 19.873H98.1082C98.2046 22.0523 100.018 23.383 102.91 23.383ZM111.674 23.3637C113.043 23.3637 113.911 22.8237 114.625 21.8594H114.683V23.0744H117.691V13.2002H114.548V18.7159C114.548 19.8923 113.892 20.7023 112.812 20.7023C111.809 20.7023 111.327 20.1044 111.327 19.0244V13.2002H108.203V19.6802C108.203 21.8787 109.398 23.3637 111.674 23.3637ZM119.059 23.0744H122.203V17.5394C122.203 16.363 122.781 15.5337 123.765 15.5337C124.71 15.5337 125.153 16.1509 125.153 17.2116V23.0744H128.297V17.5394C128.297 16.363 128.856 15.5337 129.859 15.5337C130.804 15.5337 131.248 16.1509 131.248 17.2116V23.0744H134.391V16.6523C134.391 14.4344 133.273 12.9109 131.035 12.9109C129.763 12.9109 128.702 13.4509 127.93 14.6466H127.892C127.39 13.5859 126.407 12.9109 125.115 12.9109C123.688 12.9109 122.743 13.5859 122.125 14.608H122.068V13.2002H119.059V23.0744Z" fill="#3C2B1F"/>
<path d="M20.414 1.39775L17.2536 0.550781L14.5905 10.491L12.1854 1.51667L9.025 2.36444L11.6229 12.0603L5.15179 5.58917L2.8383 7.90346L9.93625 15.0006L1.09696 12.6325L0.25 15.7921L9.90812 18.3796C9.68554 17.4203 9.6823 16.4232 9.89867 15.4625C10.115 14.5018 10.5454 13.6023 11.1578 12.8311C11.7701 12.0599 12.5486 11.4368 13.4352 11.0082C14.3218 10.5797 15.2937 10.3568 16.2785 10.3561C17.2633 10.3554 18.2355 10.577 19.1227 11.0043C20.0099 11.4316 20.7893 12.0536 21.4027 12.824C22.0161 13.5944 22.4477 14.4933 22.6654 15.4537C22.8831 16.4141 22.8813 17.4112 22.66 18.3708L31.4374 20.722L32.2836 17.5616L22.5877 14.9636L31.427 12.5947L30.5808 9.43507L20.8849 12.0322L27.3553 5.56185L25.0418 3.24757L18.0427 10.2475L20.414 1.39775Z" fill="#F97316"/>
<path d="M22.6539 18.4065C22.3868 19.533 21.8249 20.5683 21.0259 21.4062L27.3846 27.7649L29.6988 25.4506L22.6539 18.4065ZM20.9616 21.4729C20.1562 22.2966 19.1474 22.8929 18.0374 23.2014L20.3517 31.8366L23.5121 30.9896L20.9616 21.4729ZM17.9201 23.2327C17.3861 23.3698 16.8369 23.4389 16.2856 23.4384C15.6959 23.4389 15.1088 23.3597 14.5403 23.203L12.2244 31.847L15.3848 32.694L17.9201 23.2327ZM14.4286 23.1717C13.3343 22.8472 12.3439 22.2422 11.5558 21.4167L5.18188 27.7914L7.49536 30.1057L14.4286 23.1717ZM11.5028 21.3604C10.7244 20.5285 10.1772 19.5073 9.91571 18.3984L1.10938 20.7577L1.95634 23.9182L11.5028 21.3604Z" fill="#F97316"/>
</g>
</g>
</g>
<defs>
<clipPath id="clip0_1749_1238">
<rect width="135" height="32.56" fill="white"/>
</clipPath>
<clipPath id="clip1_1749_1238">
<rect width="135" height="32.56" fill="white"/>
</clipPath>
<clipPath id="clip2_1749_1238">
<rect width="135" height="32.9464" fill="white" transform="translate(0 -0.191406)"/>
</clipPath>
</defs>
</svg>
