<svg width="50" height="20" viewBox="0 0 50 20" fill="none" xmlns="http://www.w3.org/2000/svg">
<g opacity="0.7" clip-path="url(#clip0_1749_1250)">
<g clip-path="url(#clip1_1749_1250)">
<g clip-path="url(#clip2_1749_1250)">
<path d="M11.7637 9.30371e-07C9.795 9.30371e-07 7.90642 0.782064 6.51422 2.17427L1.97114 6.71799C0.579339 8.10975 -0.202741 9.9973 -0.203125 11.9656C-0.203125 16.0672 3.12032 19.39 7.22001 19.39C9.18874 19.39 11.0773 18.6079 12.4695 17.2157L15.612 14.0733L24.7686 4.91666C25.1972 4.48769 25.7287 4.17583 26.3123 4.01091C26.8958 3.84599 27.5119 3.83352 28.1017 3.97468C28.6914 4.11585 29.2351 4.40593 29.6807 4.8172C30.1264 5.22847 30.4591 5.74717 30.647 6.32373L33.5368 3.43397C32.8664 2.38103 31.9411 1.51429 30.8466 0.914021C29.7522 0.313755 28.524 -0.000624169 27.2757 9.30371e-07C25.307 9.30371e-07 23.4184 0.782064 22.0262 2.17427L9.72714 14.474C9.06221 15.1388 8.1604 15.5123 7.22011 15.5122C6.27981 15.5122 5.37805 15.1386 4.71321 14.4737C4.04836 13.8087 3.67489 12.9069 3.67495 11.9666C3.67501 11.0263 4.0486 10.1246 4.71353 9.45974L9.25661 4.91601C9.68528 4.48705 10.2168 4.17522 10.8004 4.01034C11.384 3.84547 12.0001 3.83305 12.5899 3.97428C13.1796 4.11551 13.7233 4.40567 14.1689 4.81701C14.6145 5.22835 14.9471 5.74712 15.135 6.32373L18.0248 3.43462C17.3544 2.38155 16.4292 1.51469 15.3348 0.914304C14.2403 0.313922 13.012 -0.000554977 11.7637 9.30371e-07Z" fill="#394149"/>
<path d="M25.2363 14.4733C24.8077 14.9023 24.2762 15.2142 23.6927 15.3792C23.1092 15.5441 22.4931 15.5567 21.9034 15.4156C21.3136 15.2745 20.77 14.9845 20.3243 14.5733C19.8786 14.1621 19.5459 13.6434 19.3579 13.0669L16.4688 15.956C17.139 17.0088 18.0641 17.8754 19.1583 18.4757C20.2525 19.0759 21.4805 19.3904 22.7285 19.39C24.6972 19.39 26.5858 18.6079 27.978 17.2157L40.2771 4.91601C40.942 4.25117 41.8438 3.87769 42.7841 3.87775C43.2497 3.87778 43.7107 3.96952 44.1409 4.14772C44.571 4.32592 44.9618 4.58709 45.291 4.91633C45.6202 5.24558 45.8813 5.63643 46.0595 6.06659C46.2376 6.49675 46.3293 6.95778 46.3293 7.42337C46.3292 7.88895 46.2375 8.34997 46.0593 8.78011C45.8811 9.21024 45.6199 9.60107 45.2907 9.93027L40.7476 14.474C40.3189 14.9029 39.7874 15.2148 39.2038 15.3797C38.6202 15.5445 38.0041 15.557 37.4143 15.4157C36.8246 15.2745 36.2809 14.9843 35.8353 14.573C35.3897 14.1617 35.0571 13.6429 34.8692 13.0663L31.9795 15.956C32.6499 17.0091 33.5752 17.8759 34.6698 18.4762C35.7644 19.0765 36.9928 19.3908 38.2411 19.39C40.2099 19.39 42.0985 18.6079 43.4907 17.2157L48.0337 12.672C49.4255 11.2803 50.2076 9.39271 50.208 7.42443C50.208 3.3228 46.8846 0 42.7849 0C40.8161 0 38.9275 0.782063 37.5353 2.17427L25.2363 14.4733Z" fill="#394149"/>
</g>
</g>
</g>
<defs>
<clipPath id="clip0_1749_1250">
<rect width="50" height="19.39" fill="white"/>
</clipPath>
<clipPath id="clip1_1749_1250">
<rect width="50" height="19.39" fill="white"/>
</clipPath>
<clipPath id="clip2_1749_1250">
<rect width="50.414" height="19.39" fill="white" transform="translate(-0.203125)"/>
</clipPath>
</defs>
</svg>
