<svg width="95" height="22" viewBox="0 0 95 22" fill="none" xmlns="http://www.w3.org/2000/svg">
<g opacity="0.7" clip-path="url(#clip0_1749_1222)">
<g clip-path="url(#clip1_1749_1222)">
<g clip-path="url(#clip2_1749_1222)">
<path fill-rule="evenodd" clip-rule="evenodd" d="M5.62973 0.898682V21.9786H0V0.898682H5.62973ZM8.44432 0.898682H20.4076C24.2936 0.898682 27.4443 4.04436 27.4443 7.92531C27.4443 11.8063 24.2936 14.9519 20.4076 14.9519H14.0741V21.9786H8.44432V0.898682ZM14.0741 9.33063H20.4076C20.7805 9.33078 21.1382 9.18282 21.402 8.91929C21.6659 8.65576 21.8143 8.29822 21.8146 7.92531C21.8146 7.14957 21.185 6.51998 20.4076 6.51998H14.0741V9.33063ZM48.5557 0.898682V11.79C48.5557 14.3122 50.6035 16.3573 53.1297 16.3573C55.6559 16.3573 57.7038 14.3122 57.7038 11.79V0.898682H63.3335V11.79C63.3335 17.4169 58.7651 21.9786 53.1297 21.9786C47.4944 21.9786 42.9259 17.4169 42.9259 11.79V0.898682H48.5557Z" fill="#283841"/>
<path fill-rule="evenodd" clip-rule="evenodd" d="M29.5516 10.736C29.5516 5.30297 33.9621 0.898682 39.4035 0.898682H40.8105V6.51998H39.4035C37.0712 6.51998 35.1813 8.40762 35.1813 10.736V11.4386C35.1813 17.2595 30.455 21.9786 24.6257 21.9786H23.9219V16.3573H24.6257C27.3464 16.3573 29.5516 14.1548 29.5516 11.4386V10.736Z" fill="#283841"/>
<path d="M95.0033 1.60042C95.0031 1.87747 94.9483 2.15176 94.8421 2.40763C94.7359 2.6635 94.5803 2.89595 94.3842 3.09169C94.1882 3.28744 93.9555 3.44265 93.6994 3.54846C93.4434 3.65428 93.169 3.70863 92.892 3.70841C92.615 3.70863 92.3406 3.65428 92.0846 3.54845C91.8286 3.44263 91.5959 3.28741 91.3999 3.09166C91.2039 2.89591 91.0484 2.66346 90.9422 2.40759C90.836 2.15172 90.7813 1.87744 90.7812 1.60042C90.7813 1.3234 90.836 1.04912 90.9422 0.793254C91.0484 0.537384 91.2039 0.304935 91.3999 0.109183C91.5959 -0.086569 91.8286 -0.241789 92.0846 -0.347613C92.3406 -0.453436 92.615 -0.507789 92.892 -0.507568C93.169 -0.507789 93.4434 -0.45344 93.6994 -0.347624C93.9555 -0.241807 94.1882 -0.0865958 94.3842 0.109149C94.5803 0.304894 94.7359 0.537338 94.8421 0.793211C94.9483 1.04908 95.0031 1.32337 95.0033 1.60042ZM69.3814 21.9776L72.0679 10.7452L74.0651 17.5025C75.2557 21.533 80.9731 21.533 82.1643 17.5025L84.161 10.7457L86.8474 21.9776H92.6351L88.4112 4.31551C87.4067 0.11471 81.479 -0.0409996 80.2547 4.10134L78.1147 11.3438L75.9741 4.1019C74.7503 -0.0398757 68.8221 0.115272 67.8176 4.31551L63.5938 21.9776H69.3814Z" fill="#283841"/>
</g>
</g>
</g>
<defs>
<clipPath id="clip0_1749_1222">
<rect width="95" height="21.46" fill="white"/>
</clipPath>
<clipPath id="clip1_1749_1222">
<rect width="95" height="21.46" fill="white"/>
</clipPath>
<clipPath id="clip2_1749_1222">
<rect width="95" height="22.4852" fill="white" transform="translate(0 -0.507568)"/>
</clipPath>
</defs>
</svg>
