<svg width="135" height="34" viewBox="0 0 135 34" fill="none" xmlns="http://www.w3.org/2000/svg">
<g opacity="0.7" clip-path="url(#clip0_1749_1233)">
<g clip-path="url(#clip1_1749_1233)">
<g clip-path="url(#clip2_1749_1233)">
<path d="M40.4688 23.5862H50.073V20.6933H43.8823V9.79688H40.4688V23.5862ZM55.7631 21.6576C54.3938 21.6576 53.6803 20.4619 53.6803 18.6683C53.6803 16.8747 54.3938 15.6597 55.7631 15.6597C57.1324 15.6597 57.8653 16.8747 57.8653 18.6683C57.8653 20.4619 57.1324 21.6576 55.7631 21.6576ZM55.7824 23.8947C58.9646 23.8947 61.0474 21.6383 61.0474 18.6683C61.0474 15.6983 58.9646 13.4419 55.7824 13.4419C52.6196 13.4419 50.4981 15.6983 50.4981 18.6683C50.4981 21.6383 52.6196 23.8947 55.7824 23.8947ZM66.5559 26.9997C68.0216 26.9997 69.3137 26.6719 70.1816 25.9004C70.9723 25.1869 71.493 24.1069 71.493 22.6219V13.7119H68.4845V14.7726H68.4459C67.8673 13.9433 66.9802 13.4226 65.6688 13.4226C63.2195 13.4226 61.5223 15.4669 61.5223 18.3597C61.5223 21.3876 63.5859 23.0462 65.8038 23.0462C66.9995 23.0462 67.7516 22.564 68.3302 21.9083H68.4073V22.8919C68.4073 24.0876 67.848 24.7819 66.5173 24.7819C65.4759 24.7819 64.9552 24.3383 64.7816 23.8176H61.7345C62.043 25.8812 63.8366 26.9997 66.5559 26.9997ZM66.5366 20.7126C65.3602 20.7126 64.5888 19.7483 64.5888 18.2633C64.5888 16.759 65.3602 15.7947 66.5366 15.7947C67.848 15.7947 68.5423 16.9133 68.5423 18.244C68.5423 19.6326 67.9059 20.7126 66.5366 20.7126ZM77.6789 21.6576C76.3096 21.6576 75.5961 20.4619 75.5961 18.6683C75.5961 16.8747 76.3096 15.6597 77.6789 15.6597C79.0482 15.6597 79.7811 16.8747 79.7811 18.6683C79.7811 20.4619 79.0482 21.6576 77.6789 21.6576ZM77.6982 23.8947C80.8804 23.8947 82.9632 21.6383 82.9632 18.6683C82.9632 15.6983 80.8804 13.4419 77.6982 13.4419C74.5354 13.4419 72.4139 15.6983 72.4139 18.6683C72.4139 21.6383 74.5354 23.8947 77.6982 23.8947ZM83.8809 23.5862H87.0245V13.7119H83.8809V23.5862ZM83.8809 12.3426H87.0245V9.79688H83.8809V12.3426ZM88.3889 26.8462H91.5325V22.5632H91.5711C92.1882 23.3925 93.0946 23.8939 94.3675 23.8939C96.9518 23.8939 98.6682 21.8496 98.6682 18.6482C98.6682 15.6782 97.0675 13.4218 94.4446 13.4218C93.0946 13.4218 92.1304 14.0196 91.4554 14.9068H91.3975V13.7111H88.3889V26.8462ZM93.5575 21.4647C92.2075 21.4647 91.4361 20.3654 91.4361 18.7647C91.4361 17.164 92.1304 15.949 93.4996 15.949C94.8496 15.949 95.4861 17.0676 95.4861 18.7647C95.4861 20.4426 94.7532 21.4647 93.5575 21.4647ZM103.786 23.8947C106.37 23.8947 108.28 22.7762 108.28 20.6162C108.28 18.0897 106.235 17.6462 104.5 17.3569C103.246 17.1254 102.128 17.029 102.128 16.3347C102.128 15.7176 102.725 15.4283 103.497 15.4283C104.365 15.4283 104.963 15.6983 105.078 16.5854H107.971C107.817 14.6376 106.313 13.4226 103.516 13.4226C101.183 13.4226 99.254 14.5026 99.254 16.5854C99.254 18.8997 101.086 19.3626 102.803 19.6519C104.114 19.8833 105.31 19.9797 105.31 20.8669C105.31 21.5033 104.712 21.8504 103.767 21.8504C102.725 21.8504 102.07 21.3683 101.954 20.3847H98.984C99.0804 22.564 100.893 23.8947 103.786 23.8947ZM112.55 23.8754C113.919 23.8754 114.787 23.3354 115.501 22.3712H115.558V23.5862H118.567V13.7119H115.423V19.2276C115.423 20.404 114.768 21.214 113.688 21.214C112.685 21.214 112.203 20.6162 112.203 19.5362V13.7119H109.078V20.1919C109.078 22.3904 110.274 23.8754 112.55 23.8754ZM119.934 23.5862H123.078V18.0512C123.078 16.8747 123.656 16.0454 124.64 16.0454C125.585 16.0454 126.028 16.6626 126.028 17.7233V23.5862H129.172V18.0512C129.172 16.8747 129.731 16.0454 130.734 16.0454C131.679 16.0454 132.123 16.6626 132.123 17.7233V23.5862H135.266V17.164C135.266 14.9462 134.148 13.4226 131.91 13.4226C130.638 13.4226 129.577 13.9626 128.805 15.1583H128.767C128.265 14.0976 127.282 13.4226 125.99 13.4226C124.562 13.4226 123.618 14.0976 123 15.1197H122.943V13.7119H119.934V23.5862Z" fill="#1A1414"/>
<path fill-rule="evenodd" clip-rule="evenodd" d="M16.2138 0.773438C25.2636 0.773438 32.5994 8.11005 32.5994 17.1591C32.5994 26.2089 25.2636 33.5455 16.2146 33.5455C7.16393 33.5455 -0.171875 26.2089 -0.171875 17.1591C-0.171875 8.10924 7.16473 0.773438 16.2138 0.773438ZM31.971 17.1591C31.971 8.45639 24.9156 1.40263 16.2138 1.40263C15.5122 1.40263 14.8212 1.44844 14.1429 1.53683C14.5849 1.49822 15.0284 1.47892 15.4721 1.47897C23.7874 1.47897 30.5286 8.22094 30.5286 16.5355C30.5286 24.8517 23.7866 31.5928 15.4721 31.5928C7.59946 31.5928 1.13795 25.55 0.471786 17.8509C0.833393 26.2322 7.7433 32.9163 16.2138 32.9163C24.9164 32.9163 31.971 25.8609 31.971 17.1591ZM29.8994 16.5355C29.8994 8.56728 23.4403 2.10817 15.4721 2.10817C14.8252 2.10817 14.1879 2.15076 13.5636 2.23353C13.9477 2.20138 14.3366 2.18451 14.7296 2.18451C22.3113 2.18451 28.457 8.33022 28.457 15.9119C28.457 23.4928 22.3113 29.6385 14.7296 29.6385C7.5617 29.6385 1.67634 24.1445 1.05679 17.1374C1.37179 24.8267 7.70473 30.9636 15.4721 30.9636C23.4403 30.9636 29.8994 24.5029 29.8994 16.5355ZM14.7296 2.81451C21.9633 2.81451 27.8278 8.67817 27.8278 15.9127C27.8278 23.1465 21.9633 29.0109 14.7296 29.0109C7.66295 29.0109 1.90375 23.4149 1.64098 16.4133C2.2083 22.7326 7.51991 27.6858 13.9879 27.6858C20.8343 27.6858 26.3846 22.1356 26.3846 15.2892C26.3846 8.44272 20.8343 2.89085 13.9879 2.89085C13.6335 2.89085 13.2823 2.90612 12.936 2.93504C13.5226 2.85469 14.1213 2.81451 14.7296 2.81451ZM25.757 15.2883C25.757 8.78906 20.4879 3.52005 13.9887 3.52005C13.439 3.52005 12.899 3.55781 12.3695 3.63013C12.6588 3.60763 12.9504 3.59638 13.2454 3.59638C19.3581 3.59638 24.3129 8.55121 24.3129 14.664C24.3129 20.7767 19.3581 25.7316 13.2454 25.7316C7.49179 25.7316 2.76438 21.3417 2.22839 15.7295C2.45982 22.0239 7.63643 27.0567 13.9887 27.0567C20.4879 27.0567 25.757 21.7876 25.757 15.2883ZM13.2446 4.22558C19.0102 4.22558 23.6829 8.89915 23.6829 14.664C23.6829 20.4296 19.0102 25.1024 13.2446 25.1024C7.59304 25.1024 2.99098 20.612 2.81098 15.0039C3.29473 19.9298 7.4492 23.7789 12.5021 23.7789C17.8812 23.7789 22.2413 19.4179 22.2413 14.0396C22.2413 8.6613 17.8812 4.30112 12.5021 4.30112C12.2562 4.30112 12.0119 4.31076 11.7692 4.32844C12.2513 4.26013 12.7439 4.22558 13.2446 4.22558ZM21.6121 14.0388C21.6121 9.00844 17.5332 4.92951 12.5029 4.92951C12.0432 4.92951 11.5924 4.96326 11.1512 5.02915C11.3521 5.01469 11.5554 5.00746 11.7604 5.00746C16.405 5.00746 20.1689 8.77219 20.1689 13.416C20.1689 18.0599 16.4042 21.8238 11.7604 21.8238C7.40902 21.8238 3.82911 18.5187 3.39598 14.2815C3.52455 19.2009 7.55286 23.1489 12.5029 23.1489C17.5332 23.1489 21.6121 19.07 21.6121 14.0388ZM11.7604 5.63746C16.0571 5.63746 19.5397 9.12013 19.5397 13.416C19.5397 17.7127 16.0571 21.1962 11.7612 21.1962C7.5183 21.1962 4.07018 17.8011 3.98259 13.58C4.1844 15.3776 5.06668 17.0298 6.44831 18.1974C7.82995 19.365 9.60612 19.9594 11.4122 19.8586C13.2183 19.7578 14.9174 18.9695 16.1605 17.6555C17.4037 16.3414 18.0967 14.6014 18.0973 12.7925C18.0973 11.8254 17.899 10.8686 17.5149 9.98105C17.1308 9.09353 16.5689 8.29412 15.864 7.63213C15.159 6.97014 14.3258 6.45961 13.4159 6.13202C12.506 5.80444 11.5387 5.66675 10.5735 5.72746C10.9663 5.66742 11.363 5.63733 11.7604 5.63746ZM17.4689 12.7925C17.4691 11.8564 17.2655 10.9315 16.8723 10.082C16.4791 9.2325 15.9057 8.47877 15.192 7.87314C14.4782 7.2675 13.6412 6.82447 12.739 6.57481C11.8369 6.32514 10.8912 6.27483 9.96759 6.42737C11.0861 6.3676 12.1976 6.63583 13.1658 7.1991C14.1339 7.76237 14.9164 8.59616 15.4172 9.59803C15.918 10.5999 16.1153 11.7262 15.9848 12.8387C15.8542 13.9511 15.4016 15.0012 14.6826 15.86C13.9635 16.7187 13.0092 17.3488 11.937 17.6726C10.8648 17.9965 9.7213 18.0002 8.64703 17.6832C7.57276 17.3662 6.61448 16.7423 5.88991 15.8881C5.16534 15.034 4.70602 13.9868 4.56839 12.8752C4.59483 14.5755 5.29164 16.1966 6.50722 17.3858C7.7228 18.5749 9.35879 19.236 11.0593 19.2251C12.7597 19.2142 14.3871 18.5322 15.5873 17.3275C16.7876 16.1228 17.4643 14.493 17.4689 12.7925ZM10.2746 7.04772C11.2883 7.04757 12.2794 7.34832 13.1221 7.91188C13.9648 8.47543 14.6213 9.27643 15.0084 10.2134C15.3955 11.1504 15.4958 12.1812 15.2966 13.1752C15.0974 14.1692 14.6077 15.0818 13.8894 15.7972C13.1711 16.5127 12.2567 16.9988 11.2619 17.1941C10.2671 17.3894 9.23668 17.2851 8.30124 16.8943C7.36579 16.5035 6.56738 15.8438 6.00715 14.9989C5.44691 14.154 5.15006 13.1618 5.1542 12.148C5.27097 12.9955 5.63119 13.791 6.19115 14.4378C6.75111 15.0847 7.48675 15.5551 8.30882 15.7921C9.1309 16.0291 10.0041 16.0224 10.8224 15.7729C11.6408 15.5234 12.3692 15.0418 12.9192 14.3865C13.4692 13.7311 13.8172 12.9303 13.9211 12.0811C14.0249 11.2318 13.88 10.3707 13.5041 9.6022C13.1281 8.83367 12.5372 8.19076 11.8031 7.75145C11.0689 7.31214 10.2231 7.09531 9.36812 7.12728C9.66223 7.07505 9.96518 7.04692 10.2746 7.04692V7.04772ZM13.3233 11.5437C13.3233 10.5383 12.9239 9.57409 12.213 8.86317C11.5021 8.15225 10.5379 7.75286 9.53246 7.75286C8.52706 7.75286 7.56284 8.15225 6.85192 8.86317C6.141 9.57409 5.74161 10.5383 5.74161 11.5437C5.74161 12.5491 6.141 13.5133 6.85192 14.2242C7.56284 14.9352 8.52706 15.3346 9.53246 15.3346C10.5379 15.3346 11.5021 14.9352 12.213 14.2242C12.9239 13.5133 13.3233 12.5491 13.3233 11.5437Z" fill="#1A1414"/>
</g>
</g>
</g>
<defs>
<clipPath id="clip0_1749_1233">
<rect width="135" height="33.75" fill="white"/>
</clipPath>
<clipPath id="clip1_1749_1233">
<rect width="135" height="33.75" fill="white"/>
</clipPath>
<clipPath id="clip2_1749_1233">
<rect width="135.804" height="33.75" fill="white" transform="translate(-0.40625)"/>
</clipPath>
</defs>
</svg>
