<svg width="2160" height="1401" viewBox="0 0 2160 1401" fill="none" xmlns="http://www.w3.org/2000/svg">
<g clip-path="url(#clip0_1758_1108)">
<path d="M0 1399.85H2159M0 1359.87H2159M0 1319.89H2159M0 1279.91H2159M0 1239.93H2159M0 1199.94H2159M0 1159.96H2159M0 1119.98H2159M0 1080H2159M0 1040.02H2159M0 1000.04H2159M0 960.058H2159M0 920.076H2159M0 880.095H2159M0 840.113H2159M0 800.132H2159M0 760.15H2159M0 720.169H2159M0 680.187H2159M0 640.206H2159M0 600.224H2159M0 560.243H2159M0 520.261H2159M0 480.28H2159M0 440.298H2159M0 400.317H2159M0 360.333H2159M0 320.352H2159M0 280.37H2159M0 240.389H2159M0 200.407H2159M0 160.426H2159M0 120.444H2159M0 80.463H2159M0 40.4815H2159M0 0.5H2159M0.499769 0.999769V1400.35M40.4813 0.999769V1400.35M80.4627 0.999769V1400.35M120.444 0.999769V1400.35M160.426 0.999769V1400.35M200.407 0.999769V1400.35M240.389 0.999769V1400.35M280.37 0.999769V1400.35M320.352 0.999769V1400.35M360.333 0.999769V1400.35M400.315 0.999769V1400.35M440.296 0.999769V1400.35M480.278 0.999769V1400.35M520.259 0.999769V1400.35M560.241 0.999769V1400.35M600.222 0.999769V1400.35M640.206 0.999769V1400.35M680.187 0.999769V1400.35M720.169 0.999769V1400.35M760.15 0.999769V1400.35M800.132 0.999769V1400.35M840.113 0.999769V1400.35M880.095 0.999769V1400.35M920.076 0.999769V1400.35M960.058 0.999769V1400.35M1000.04 0.999769V1400.35M1040.02 0.999769V1400.35M1080 0.999769V1400.35M1119.98 0.999769V1400.35M1159.96 0.999769V1400.35M1199.94 0.999769V1400.35M1239.93 0.999769V1400.35M1279.91 0.999769V1400.35M1319.89 0.999769V1400.35M1359.87 0.999769V1400.35M1399.85 0.999769V1400.35M1439.83 0.999769V1400.35M1479.81 0.999769V1400.35M1519.8 0.999769V1400.35M1559.78 0.999769V1400.35M1599.76 0.999769V1400.35M1639.74 0.999769V1400.35M1679.72 0.999769V1400.35M1719.7 0.999769V1400.35M1759.69 0.999769V1400.35M1799.67 0.999769V1400.35M1839.65 0.999769V1400.35M1879.63 0.999769V1400.35M1919.61 0.999769V1400.35M1959.59 0.999769V1400.35M1999.57 0.999769V1400.35M2039.56 0.999769V1400.35M2079.54 0.999769V1400.35M2119.52 0.999769V1400.35M2159.5 0.999769V1400.35" stroke="#F3F4F7" stroke-width="0.999537"/>
<path d="M1319.39 520.757H1359.37V560.739H1319.39V520.757ZM999.535 520.757H1039.52V560.739H999.535V520.757ZM999.535 960.554H1039.52V1000.54H999.535V960.554ZM719.665 640.702H759.646V680.683H719.665V640.702ZM79.9609 80.9609H119.942V120.942H79.9609V80.9609ZM919.572 80.9609H959.554V120.942H919.572V80.9609ZM1519.29 240.887H1559.28V280.868H1519.29V240.887ZM999.535 240.887H1039.52V280.868H999.535V240.887ZM1119.48 360.831H1159.46V400.813H1119.48V360.831ZM1479.31 400.813H1519.29V440.794H1479.31V400.813ZM799.628 200.905H839.609V240.887H799.628V200.905ZM239.887 560.739H279.868V600.72H239.887V560.739ZM1439.33 680.683H1479.31V720.665H1439.33V680.683ZM1599.26 960.554H1639.24V1000.54H1599.26V960.554ZM1719.2 600.72H1759.18V640.702H1719.2V600.72ZM1879.13 800.628H1919.11V840.609H1879.13V800.628ZM1799.17 200.905H1839.15V240.887H1799.17V200.905ZM79.9609 360.831H119.942V400.813H79.9609V360.831ZM79.9609 1000.54H119.942V1040.52H79.9609V1000.54ZM479.776 160.924H519.757V200.905H479.776V160.924ZM319.85 320.85H359.831V360.831H319.85V320.85ZM559.739 560.739H599.72V600.72H559.739V560.739ZM559.739 1200.44H599.72V1240.42H559.739V1200.44ZM559.739 920.572H599.72V960.554H559.739V920.572ZM1359.37 160.924H1399.35V200.905H1359.37V160.924Z" fill="#F6F7F9"/>
</g>
<defs>
<clipPath id="clip0_1758_1108">
<rect width="2160" height="1400.35" fill="white"/>
</clipPath>
</defs>
</svg>
